<svg width="9" height="11" viewBox="0 0 9 11" fill="none" xmlns="http://www.w3.org/2000/svg">
<mask id="mask0_279_287" style="mask-type:alpha" maskUnits="userSpaceOnUse" x="0" y="0" width="9" height="11">
<rect width="9" height="11" fill="#A3D3ED"/>
</mask>
<g mask="url(#mask0_279_287)">
<path d="M-1.92424 11V6H-1.07576V11H-1.92424ZM-4 8.92424V8.07576H1V8.92424H-4Z" fill="#05566A"/>
<path d="M-4.92424 5V0H-4.07576V5H-4.92424ZM-7 2.92424V2.07576H-2V2.92424H-7Z" fill="#05566A"/>
<path d="M-7.92424 11V6H-7.07576V11H-7.92424ZM-10 8.92424V8.07576H-5V8.92424H-10Z" fill="#05566A"/>
<path d="M4.07576 11V6H4.92424V11H4.07576ZM2 8.92424V8.07576H7V8.92424H2Z" fill="#05566A"/>
<path d="M7.07576 5V0H7.92424V5H7.07576ZM5 2.92424V2.07576H10V2.92424H5Z" fill="#05566A"/>
<path d="M10.0758 11V6H10.9242V11H10.0758ZM8 8.92424V8.07576H13V8.92424H8Z" fill="#05566A"/>
<path d="M1.07576 5V0H1.92424V5H1.07576ZM-1 2.92424V2.07576H4V2.92424H-1Z" fill="#05566A"/>
<path d="M3 6V7H0V6H3Z" fill="#05566A"/>
<path d="M0 0V1H-3V0H0Z" fill="#05566A"/>
<path d="M-3 6V7H-6V6H-3Z" fill="#05566A"/>
<path d="M6 0V1H3V0H6Z" fill="#05566A"/>
<path d="M9 6V7H6V6H9Z" fill="#05566A"/>
<path d="M3 10V11H0V10H3Z" fill="#05566A"/>
<path d="M0 4V5H-3V4H0Z" fill="#05566A"/>
<path d="M-3 10V11H-6V10H-3Z" fill="#05566A"/>
<path d="M6 4V5H3V4H6Z" fill="#05566A"/>
<path d="M9 10V11H6V10H9Z" fill="#05566A"/>
</g>
</svg>
